<svg width="422" height="273" viewBox="0 0 422 273" fill="none" xmlns="http://www.w3.org/2000/svg">
  <g clip-path="url(#clip0_1533_8768)">
    <path
      d="M196.45 150.8C202.78 154.46 210.59 154.44 216.91 150.77L230.37 142.95L182.49 115.32C168.02 106.97 159.11 91.53 159.11 74.82V19.51L145.6 27.26C139.26 30.9 135.35 37.65 135.35 44.96V88.37C135.35 105.17 144.31 120.69 158.86 129.09L196.45 150.79V150.8Z"
      fill="url(#paint0_linear_1533_8768)" />
    <path
      d="M214.08 4.94C206.5 8.39 200.91 15.45 199.5 23.93C199.28 25.28 199.16 26.66 199.16 28.06V64.96C199.16 69.21 200.3 73.29 202.36 76.84C204.4 80.39 207.38 83.41 211.05 85.54L222.45 92.11C228.19 95.41 234.85 97.3 241.95 97.3C253.2 97.3 263.34 92.56 270.49 84.97V106.19C270.49 110.41 269.36 114.47 267.33 118.01C265.28 121.57 262.31 124.6 258.63 126.73C251.29 130.97 242.25 130.97 234.91 126.73L210.58 112.69L192.88 102.47C182.08 96.24 175.42 84.71 175.42 72.24V23.72C175.42 19.48 176.55 15.4 178.6 11.86C180.64 8.31 183.61 5.29 187.28 3.18C194.63 -1.06 203.67 -1.06 211 3.18L214.07 4.95L214.08 4.94Z"
      fill="url(#paint1_linear_1533_8768)" />
    <path
      d="M253.03 27.43C263.83 33.66 270.49 45.19 270.49 57.66V57.7C270.49 73.11 258.43 86.04 243.04 86.62C240.11 86.73 237.28 86.4 234.6 85.68C241.66 81.71 246.74 74.21 246.74 64.94C246.74 58.68 244.28 52.77 240.05 48.4C238.54 46.83 236.8 45.46 234.86 44.35L209.82 29.89V28.13C209.82 19.94 216.46 13.31 224.64 13.31C227.16 13.31 229.53 13.93 231.6 15.04L253.04 27.42L253.03 27.43Z"
      fill="url(#paint2_linear_1533_8768)" />
    <path d="M13.21 246.58V189.87H0V253.7C0 256.76 2.48 259.24 5.54 259.24H45.7V246.57H13.21V246.58Z" fill="#131314" />
    <path
      d="M57.7791 188.22C53.9291 188.22 50.6191 191.52 50.6191 195.38C50.6191 199.24 53.9291 202.54 57.7791 202.54C61.6291 202.54 64.9391 199.24 64.9391 195.38C64.9391 191.52 61.6291 188.22 57.7791 188.22ZM51.1691 208.59V259.25H63.8391V208.59H51.1691Z"
      fill="#131314" />
    <path
      d="M114.681 208.59C112.941 208.59 111.371 209.61 110.671 211.2L109.621 213.55C108.411 212.56 107.201 211.57 105.771 210.8C103.241 209.48 99.7109 208.05 95.3109 208.05C82.6409 208.05 71.6309 218.95 71.6309 233.93C71.6309 248.91 82.6409 259.81 95.3109 259.81C99.3909 259.81 102.691 258.6 105.001 257.39C106.321 256.62 107.531 255.85 108.521 254.86V271.34C108.521 274.4 111.001 276.88 114.061 276.88H121.181V208.6H114.681V208.59ZM96.9609 247.68C89.8009 247.68 84.2909 242.29 84.2909 233.92C84.2909 225.55 89.7909 220.15 96.9609 220.15C104.131 220.15 109.621 225.55 109.621 233.92C109.621 242.29 104.121 247.68 96.9609 247.68Z"
      fill="#131314" />
    <path
      d="M165.52 208.59V236.67C165.52 243.28 161.22 247.68 155.06 247.68C148.9 247.68 144.6 243.28 144.6 236.67V208.59H131.93V238.32C131.93 251.53 140.3 259.8 152.3 259.8C156.37 259.8 160 258.48 162.54 257.05C163.97 256.28 165.4 255.29 166.62 254.3L167.66 256.65C168.36 258.23 169.94 259.26 171.68 259.26H178.18V208.6H165.52V208.59Z"
      fill="#131314" />
    <path
      d="M195.76 188.22C191.91 188.22 188.6 191.52 188.6 195.38C188.6 199.24 191.9 202.54 195.76 202.54C199.62 202.54 202.92 199.24 202.92 195.38C202.92 191.52 199.62 188.22 195.76 188.22ZM189.16 208.59V259.25H201.82V208.59H189.16Z"
      fill="#131314" />
    <path
      d="M246.509 195.42V213C245.519 212.11 244.309 211.35 242.989 210.58C240.679 209.37 237.369 208.05 233.299 208.05C220.629 208.05 209.619 218.95 209.619 233.93C209.619 248.91 220.629 259.81 233.299 259.81C237.699 259.81 241.229 258.49 243.759 257.06C245.189 256.29 246.399 255.3 247.609 254.31L248.649 256.65C249.359 258.24 250.929 259.26 252.669 259.26H259.169V189.89H252.049C248.989 189.89 246.509 192.37 246.509 195.43V195.42ZM234.949 247.68C227.789 247.68 222.289 242.29 222.289 233.92C222.289 225.55 227.789 220.15 234.949 220.15C242.109 220.15 247.619 225.55 247.619 233.92C247.619 242.29 242.109 247.68 234.949 247.68Z"
      fill="#131314" />
    <path
      d="M276.75 188.22C272.9 188.22 269.59 191.52 269.59 195.38C269.59 199.24 272.89 202.54 276.75 202.54C280.61 202.54 283.91 199.24 283.91 195.38C283.91 191.52 280.61 188.22 276.75 188.22ZM270.15 208.59V259.25H282.81V208.59H270.15Z"
      fill="#131314" />
    <path
      d="M326.82 208.59V236.67C326.82 243.28 322.53 247.68 316.36 247.68C310.19 247.68 305.9 243.28 305.9 236.67V208.59H293.24V238.32C293.24 251.53 301.61 259.8 313.61 259.8C317.69 259.8 321.32 258.48 323.85 257.05C325.28 256.28 326.71 255.29 327.92 254.3L328.96 256.65C329.67 258.23 331.24 259.26 332.98 259.26H339.48V208.6H326.81L326.82 208.59Z"
      fill="#131314" />
    <path
      d="M403.299 208.05C398.899 208.05 395.149 209.7 392.509 211.35C390.969 212.34 389.649 213.44 388.429 214.65C387.659 213.44 386.559 212.34 385.239 211.35C382.929 209.7 379.289 208.05 374.119 208.05C370.489 208.05 367.509 209.48 365.419 210.8C364.209 211.57 362.999 212.56 362.009 213.55L360.969 211.21C360.269 209.62 358.689 208.6 356.949 208.6H350.449V259.26H363.119V230.08C363.119 223.91 366.969 220.17 371.379 220.17C375.789 220.17 379.639 223.91 379.639 230.08V259.26H392.299V230.08C392.299 223.91 396.149 220.17 400.559 220.17C404.969 220.17 408.819 223.91 408.819 230.08V259.26H421.479V228.98C421.479 215.21 414.319 208.06 403.309 208.06L403.299 208.05Z"
      fill="#131314" />
  </g>
  <defs>
    <linearGradient id="paint0_linear_1533_8768" x1="132.54" y1="34.81" x2="203.85" y2="158.32"
      gradientUnits="userSpaceOnUse">
      <stop offset="0.01" stop-color="#F6B360" />
      <stop offset="1" stop-color="#F36C64" />
    </linearGradient>
    <linearGradient id="paint1_linear_1533_8768" x1="179.35" y1="7.74" x2="250.69" y2="131.31"
      gradientUnits="userSpaceOnUse">
      <stop offset="0.01" stop-color="#F6B360" />
      <stop offset="1" stop-color="#F36C64" />
    </linearGradient>
    <linearGradient id="paint2_linear_1533_8768" x1="221.33" y1="12.93" x2="260.3" y2="80.42"
      gradientUnits="userSpaceOnUse">
      <stop stop-color="#F14A66" />
      <stop offset="0.99" stop-color="#F03367" />
    </linearGradient>
    <clipPath id="clip0_1533_8768">
      <rect width="422" height="273" fill="white" />
    </clipPath>
  </defs>
</svg>