<svg width="122" height="32" viewBox="0 0 122 32" fill="none" xmlns="http://www.w3.org/2000/svg">
    <path d="M10.0268 6.7751L4.83434 10.4103V3.63523L10.0268 0L15.2015 3.62253L15.2028 14.0417L10.0268 10.4103V6.7751Z" fill="#4B5BA0"></path>
    <path d="M0 7.01269L4.83427 10.4079V24.4623L10.0267 20.836V28.0848L4.83427 31.7201L0 28.3097V7.01269Z" fill="#4B5BA0"></path>
    <path d="M10.0267 20.836L15.2024 24.4597V17.6719L10.0264 14.0341L10.0267 20.836Z" fill="#4B5BA0"></path>

    <path d="M32.6744 8.12646H29.4317V24.4621H40.4288V21.7414H32.6744V8.12646Z" fill="#4B5BA0"></path>
    <path d="M56.6004 14.0353V24.4621H59.833V13.1348H66.3032V10.4102H60.2242C58.2224 10.4102 56.5991 12.0335 56.5991 14.0353H56.6004Z" fill="#4B5BA0"></path>
    <path d="M81.848 24.4862H85.0793C85.0793 24.4862 85.0793 17.3999 85.0793 13.1271L81.848 10.8649V24.4862Z" fill="#4B5BA0"></path>
    <path d="M89.5156 10.4102H85.0915V13.1259H88.347C89.762 13.1259 90.9089 14.2728 90.9089 15.6878V24.4863H94.1593V15.054C94.1593 12.4895 92.08 10.4115 89.5168 10.4115L89.5156 10.4102Z" fill="#4B5BA0"></path>
    <path d="M121.07 13.7927C120.512 12.7397 119.691 11.9128 118.608 11.3121C117.541 10.71 116.283 10.4102 114.833 10.4102C113.47 10.4102 112.248 10.6859 111.163 11.2371C110.097 11.7884 109.25 12.5899 108.621 13.6428C108.009 14.678 107.704 15.9063 107.704 17.3263C107.704 18.7464 107.984 19.9238 108.543 21.0098C109.119 22.0958 109.941 22.9481 111.007 23.5654C112.09 24.1662 113.366 24.4672 114.833 24.4672C116.213 24.4672 117.436 24.1827 118.502 23.6149C119.586 23.0472 120.424 22.2279 121.018 21.1584C121.631 20.0724 121.935 18.7946 121.935 17.3238C121.935 16.0041 121.647 14.8266 121.07 13.7902V13.7927ZM117.658 20.6593C116.972 21.5115 116.03 21.937 114.831 21.937C113.632 21.937 112.743 21.528 112.007 20.7088C111.288 19.873 110.928 18.7451 110.928 17.3251C110.928 16.0053 111.279 14.9447 111.981 14.142C112.7 13.3405 113.65 12.9391 114.831 12.9391C116.013 12.9391 116.955 13.3405 117.658 14.142C118.359 14.9435 118.71 16.0053 118.71 17.3251C118.71 18.6448 118.359 19.7892 117.658 20.658V20.6593Z" fill="#4B5BA0"></path>
    <path d="M77.3592 11.3096C76.3418 10.7075 75.1415 10.4077 73.757 10.4077C72.4564 10.4077 71.2904 10.6834 70.2564 11.2346C69.239 11.7859 68.4312 12.5874 67.8304 13.6403C67.2461 14.6755 66.9553 15.9038 66.9553 17.3238C66.9553 18.7439 67.222 19.9213 67.7555 21.0073C68.3055 22.0933 69.0892 22.9456 70.1066 23.5629C71.1405 24.1637 72.3573 24.4647 73.7583 24.4647C75.0755 24.4647 76.2428 24.1802 77.2602 23.6124C78.2941 23.0447 79.0943 22.2254 79.6608 21.1559C79.7243 21.0365 79.784 20.9146 79.8412 20.7914H76.338C75.6953 21.5497 74.838 21.9333 73.7583 21.9333C72.6787 21.9333 71.7654 21.5243 71.063 20.705C70.5067 20.028 70.1802 19.1567 70.0748 18.0961H78.8669V18.0935H80.5029C80.5232 17.8421 80.5359 17.5867 80.5359 17.3226C80.5359 16.0028 80.2603 14.8254 79.7103 13.7889C79.1769 12.736 78.3932 11.9091 77.3592 11.3083V11.3096ZM71.0363 14.1408C71.7222 13.3393 72.6291 12.9379 73.7558 12.9379C74.8824 12.9379 75.7817 13.3393 76.4523 14.1408C76.8512 14.6184 77.1293 15.1912 77.2907 15.853H70.198C70.3593 15.1912 70.6362 14.6184 71.0363 14.1408Z" fill="#4B5BA0"></path>
    <path d="M51.9795 11.3121C50.9138 10.71 49.6563 10.4102 48.2058 10.4102C46.8429 10.4102 45.621 10.6859 44.5375 11.2371C44.1107 11.4581 43.7208 11.7198 43.3652 12.0208L45.8013 13.7279C46.4529 13.2059 47.2531 12.9404 48.2045 12.9404C49.387 12.9404 50.327 13.3418 51.0294 14.1433C51.7305 14.9447 52.0823 16.0066 52.0823 17.3263C52.0823 18.646 51.7305 19.7905 51.0294 20.6593C50.3448 21.5115 49.4035 21.937 48.2045 21.937C47.0055 21.937 46.1176 21.528 45.3809 20.7088C44.662 19.873 44.3025 18.7451 44.3025 17.3251C44.3025 16.9859 44.3267 16.6646 44.3724 16.3597L41.611 14.4176C41.2567 15.2763 41.0788 16.2441 41.0788 17.3251C41.0788 18.6956 41.3583 19.9226 41.9172 21.0085C42.4938 22.0945 43.3143 22.9468 44.38 23.5641C45.4635 24.1649 46.7375 24.466 48.2058 24.466C49.5865 24.466 50.8084 24.1814 51.8753 23.6137C52.9588 23.0459 53.7971 22.2266 54.3902 21.1572C55.0025 20.0712 55.3073 18.7934 55.3073 17.3225C55.3073 16.0028 55.019 14.8254 54.4423 13.7889C53.8834 12.7359 53.0629 11.909 51.9795 11.3082V11.3121Z" fill="#4B5BA0"></path>
    <path d="M95.4138 13.1347H103.196L95.4189 21.8087V24.4621H107.052V21.7402H99.3272L107.052 13.1779V10.4102H95.4138V13.1347Z" fill="#4B5BA0"></path>
</svg>