<svg width="174" height="32" viewBox="0 0 174 32" fill="none" xmlns="http://www.w3.org/2000/svg">
    <g id="Group 427320592">
        <g id="Group 427320597" fill="#FFD700">
            <path id="Vector" fill-rule="evenodd" clip-rule="evenodd" d="M0.845703 10.6448L24.827 0L31.2161 2.83599L14.3178 10.3534L16.8343 11.52L33.6504 3.91653L48.8084 10.6448L24.827 21.2896L18.4035 18.4383L35.7837 10.6447L33.5632 9.62393L15.9988 17.371L0.845703 10.6448Z"/>
            <path id="Vector_2" d="M23.9813 32.0003L0 21.0637L6.36541 18.1475L23.9813 26.1675L41.5972 18.1475L47.8146 21.2096L23.9813 32.0003Z"/>
        </g>
        <g id="SATLAYER">
            <path d="M63.4217 22.5409V20.1845H69.6268C70.6202 20.1845 71.3142 20.0723 71.7088 19.8478C72.1171 19.6102 72.3212 19.2076 72.3212 18.6399C72.3212 17.5574 71.5387 17.0162 69.9738 17.0162H67.4632C65.8847 17.0162 64.7077 16.6927 63.932 16.0459C63.1564 15.3858 62.7686 14.4353 62.7686 13.1944C62.7686 12.3627 62.9863 11.6168 63.4217 10.9568C63.8572 10.2967 64.3266 9.88086 64.8301 9.70925C65.3336 9.53763 65.7963 9.43202 66.2181 9.39241C66.64 9.35281 67.2523 9.33301 68.0552 9.33301H74.791V11.6894H68.7083C68.0824 11.6894 67.6809 11.696 67.504 11.7092C67.3407 11.7224 67.0414 11.7818 66.6059 11.8875C66.1841 11.9799 65.9732 12.3957 65.9732 13.135C65.9732 13.7026 66.1501 14.0987 66.5039 14.3231C66.8713 14.5475 67.5245 14.6597 68.4634 14.6597H70.6474C71.668 14.6597 72.4641 14.7389 73.0356 14.8974C73.6207 15.0558 74.1854 15.4122 74.7297 15.9667C75.274 16.5079 75.5462 17.4122 75.5462 18.6795C75.5462 19.3792 75.3897 20.0327 75.0767 20.6399C74.7638 21.234 74.3895 21.663 73.9541 21.927C73.5323 22.1779 73.056 22.3429 72.5253 22.4221C72.0082 22.5013 71.253 22.5409 70.2596 22.5409H63.4217Z" fill="#141414"/>
            <path d="M77.1651 22.5409L82.7987 9.33301H86.1258L91.7594 22.5409H88.371L87.0647 19.4716H81.8802L80.5738 22.5409H77.1651ZM84.4724 12.5013L82.5333 17.1152H86.4115L84.4724 12.5013Z" fill="#141414"/>
            <path d="M96.4878 11.6894H92.1402V9.33301H103.877V11.6894H99.3863V22.5409H96.4878V11.6894Z" fill="#141414"/>
            <path d="M106.856 9.33301H109.755V16.7389C109.755 17.3594 109.761 17.7554 109.775 17.9271C109.789 18.0855 109.836 18.4419 109.918 18.9964C110.013 19.5508 110.36 19.8808 110.959 19.9865C111.558 20.0921 111.979 20.1515 112.224 20.1647C112.483 20.1779 112.878 20.1845 113.408 20.1845H116.184V22.5409H113.102L111.551 22.5211C110.544 22.5211 109.714 22.3495 109.061 22.0063C108.407 21.6498 107.924 21.2076 107.611 20.6795C107.298 20.1383 107.094 19.5838 106.999 19.0162C106.904 18.4353 106.856 17.6762 106.856 16.7389V9.33301Z" fill="#141414"/>
            <path d="M118.821 22.5409L124.455 9.33301H127.782L133.416 22.5409H130.027L128.721 19.4716H123.537L122.23 22.5409H118.821ZM126.129 12.5013L124.19 17.1152H128.068L126.129 12.5013Z" fill="#141414"/>
            <path d="M138.797 16.7587L133.756 9.33301H137.164L140.287 14.4815L143.574 9.33301H147.003L141.696 16.8577V22.5409H138.797V16.7587Z" fill="#141414"/>
            <path d="M158.848 9.33301V11.6894H155.071C154.092 11.6894 153.37 11.7554 152.908 11.8875C152.459 12.0195 152.098 12.2571 151.826 12.6003C151.567 12.9436 151.397 13.2406 151.316 13.4914C151.234 13.7422 151.193 14.1779 151.193 14.7983H158.848V17.1548H151.193C151.302 18.2901 151.642 19.0822 152.214 19.531C152.799 19.9667 153.792 20.1845 155.194 20.1845H158.848V22.5409H155.071C153.602 22.5409 152.472 22.4353 151.683 22.2241C150.907 22.0129 150.084 21.465 149.213 20.5805C148.342 19.696 147.907 18.1515 147.907 15.9469C147.907 13.5046 148.41 11.8743 149.417 11.0558C150.438 10.2241 151.214 9.72905 151.744 9.57063C152.289 9.41222 153.023 9.33301 153.949 9.33301H158.848Z" fill="#141414"/>
            <path d="M164.447 17.531V22.5409H161.548V9.33301H168.202C169.236 9.33301 170.073 9.39241 170.713 9.51123C171.353 9.63004 172.026 9.92707 172.734 10.4023C173.441 10.8644 173.795 11.7356 173.795 13.0162C173.795 15.0096 172.931 16.2967 171.203 16.8775C172.087 17.168 172.72 17.5838 173.101 18.1251C173.482 18.6531 173.673 19.4584 173.673 20.5409C173.673 21.0822 173.686 21.4452 173.713 21.63C173.754 21.8148 173.85 22.1185 173.999 22.5409H170.754C170.672 22.2769 170.618 22.0855 170.59 21.9666C170.577 21.8478 170.516 21.3 170.407 20.3231C170.312 19.3462 169.999 18.6399 169.468 18.2043C168.951 17.7554 168.053 17.531 166.773 17.531H164.447ZM164.447 15.1746H168.508C169.243 15.1746 169.774 15.036 170.101 14.7587C170.427 14.4815 170.59 14.0195 170.59 13.3726C170.59 12.7653 170.427 12.3363 170.101 12.0855C169.788 11.8215 169.257 11.6894 168.508 11.6894H164.447V15.1746Z" fill="#141414"/>
        </g>
    </g>
</svg>